<svg xmlns="http://www.w3.org/2000/svg" viewBox="0 0 35.2 49" width="35" height="49"><path d="M27.5 0h-.2c-.3.2-.5.5-.7.8-.3.6-.5 1.1-.7 1.7-.1.4-.3.6-.7.7-1.2.2-2 .9-2.6 1.9-.4.6-.7 1.3-.9 2-.7 1.9-1.3 3.8-1.9 5.7-.3.9-.3.9-1.3.9-1.1 0-1.1-.2-1.1 1.1 0 .4.1.6.5.6.1 0 .3-.1.4.1 0 .1-.1.2-.2.3-.6.6-1.4 1-2.2 1.2-1 .3-1.9.5-2.9.8-2.4.8-4.6 1.9-6.3 3.8-1 1.2-1.8 2.5-2.4 4-1.9 4.3-2.7 8.9-3.4 13.6-.3 2.2-.5 4.4-.7 6.5C.1 46.8 0 47.9 0 49c5.6 0 11.2 0 16.8-.1.1-.2 0-.4-.1-.6-.3-.9-1-1.3-1.9-1.5-.4-.1-.4-.2-.2-.5.4-.5.6-1 .8-1.6.8-2.4 1.1-5 1.5-7.5.3-1.9.7-3.8 1.7-5.5.7-1.3 1.7-2.3 2.8-3.2.4-.3.4-.3.5.2 0 .4.1.7.1 1.1.2 2.4.1 4.8-.1 7.1-.2 1.9-.2 3.7-.1 5.6.2 2.1.6 4.2 1.1 6.3h6.7c-.2-1.1-1.1-2-2.1-2.2-.6-.1-1.3 0-1.9.1-.3.1-.4 0-.5-.3-.2-2.7-.1-5.3.5-8 .6-3 1.2-6.1 1.5-9.2.1-1.3.5-2.4 1.1-3.5.6-1.1 1.1-2.2 1.7-3.3.5-.9.6-1.7.2-2.6-.1-.4-.3-.7-.4-1.1-.5-1-1-2-1.5-2.9-.2-.5-.2-.6.4-.6.8 0 .8 0 .8-.8v-.3c0-.3-.1-.5-.5-.5h-.8c-.3 0-.5-.1-.4-.5.3-1.2 1.4-2.1 2.6-2.2 1.1-.1 2.2 0 3.3.2.3.1.5 0 .6-.3l.6-1.5c.1-.2.1-.4 0-.6-1.6-2.1-3.4-4-5.8-5.2.1-.1 0-.3-.1-.5-.2-.7-.3-1.4-.6-2.1-.2-.4-.4-.7-.8-.9z"/></svg>