<svg xmlns="http://www.w3.org/2000/svg" height="536.82" width="585.99" version="1.0"><path d="M234.154 532.254c-26.08-2.653-51.89-8.393-75.261-20.416-32.938-10.377-64.03-29.7-87.174-55.2-20.868-26.036-33.646-57.208-51.565-85.072C5.15 331.626-5.067 288.654 2.627 245.998c2.576-33.326 8.172-67.045 26.43-95.894C53.489 103.72 89.79 63.054 132.645 32.411c25.962-14.157 54.467-25.416 83.7-30.923 63.986-4.224 131.12-.814 189.402 28.204 44.589 15.716 87.229 39.32 117.811 75.752 34.657 37.664 51.49 88.077 60.352 137.278 2.53 45.153 6.603 93.163-14.677 134.937-15.028 33.27-31.08 67.712-56.542 94.425-32.142 26.329-69.398 49.176-110.336 58.787-55.539 6.803-112.613 8.438-168.2 1.383z" fill="#d0f4b4"/><path d="M233.776 530.397c-35.51-2.763-68.45-16.51-100.526-30.712-36.269-17.316-68.385-44.931-83.747-82.402-12.427-25.221-32.07-47.104-36.71-75.584-16.84-45.597-9.71-94.643-1.356-141.117 8.284-31.853 25.43-61.248 43.828-88.353 31.232-34.416 60.898-75.35 107.926-89.331 31.093-10.796 62.411-24.38 96.219-20.603 28.975.553 61.596 4.24 82.267 26.494-17.695 2.21-34.72 1.84-54.305-6.128-27.083-16.128-60.857-13.048-86.89 2.747-26.078 10.552 8.411 26.14 21.508 25.228 19.682 29.325 58.894 3.3 82.795 23.686 22.244-1.84 5.628 21.405 28.393 23.529 10.323 13.964 45.983.453 46.017 14.351 5.923 21.196 39.35 5.895 53.059 1.235-1.974-23.175-27.669-37.579-48.922-50.661-15.874-11.064-2.67-6.191 4.444-6.202 25.952-9.645 20.466 27.152 43.709 25.654.604-18.603 45.117 7.137 23.124 15.439 18.854 33.97 24.967-22.448.178-27.459-6.46-8.695-46.69-25.361-29.519-30.45 25.61 10.573 47.584 27.928 70.54 43.183 35.992 30.965 63.137 71.527 75.868 117.113 15.486 41.36 11.018 86.302 10.06 129.473-6.268 38.157-25.086 73.426-44.368 106.69-24.652 42.21-67.793 69.043-112.832 86.19-42.583 14.799-89.001 11.262-133.502 12.213-19.165-.065-38.315-1.287-57.258-4.223zM185.72 66.573c-23.258-10.69-.835 29.195 0 0zm224.575 43.046c-20.98-5.942-13.292-17.76 5.098-10.568 14.906-1.628-1.618 18.647-5.098 10.568zm-33.988-80.052c4.778-7.462 4.778 7.462 0 0z" fill="#aad38b"/><path d="M236.075 529.935c-29.205-3.021-57.571-10.557-83.905-23.386-40.987-14.132-80.155-40.92-97.92-81.321-13.386-27.864-35.42-52.025-39.202-83.612-18.842-50.662-10.419-106.523 2.717-157.404 13.02-25.853 23.902-53.765 42.837-75.735 14.737-11 31.678-46.433 43.701-24.217 33.165-2.912-12.459-35.43 20.902-40.924 6.67-10.345 47.778-9.722 31.439-13.747 11.389-3.779 43.873-19.257 46.21-10.39-17.782 2.452-43.452 14.153-13.13 19.34 13.447 12.947 36.103 8.943 49.408 25.623 26.22 6.175 53.405-2.28 76.673 13.548-2.607 24.18 40.313 28.441 60.308 33.087 4.481 25.11 39.298 27.005 48.945 45.407 19.572.641-12.793-24.755 13.534-25.071 11.987-8.254-11.496-33.309-18.055-45.2-15.453-9.23-60.848-37.897-21.16-28.204 14.816-1.765 18.015 40.425 35.106 18.543 11.36 1.023 32.948 12.174 16.45 19.582 10.737 14.182 30.117 40.676 46.397 40.405 9.857-21.445-20.087-42.13-31.596-59.974-9.203-13.702-35.386-22.469-39.52-33.459 26.277 6.12 43.525 29.323 67.601 40.25 18.784 18.631 36.499 39.82 52.265 61.632 15.582 26.673 24.995 56.766 32.551 86.497 8.43 52.03 7.335 107.77-16.418 156.034-19.275 48.944-51.847 95.317-101.359 118.091-47.893 29.922-106.458 29.279-161.066 29.442-21.302-.447-42.625-1.748-63.713-4.837zm4.293-291.607c.871-18.266-31.328 12.936-3.234 1.877l3.234-1.877zm109.003-19.888c-11.378-25.925-11.214 5.62 0 0zm-15.888-16.478c4.875-10.598 11.31-41.067 27.36-30.057-18.258 14.453 4.4 24.446 12.106 7.596-9.97-24.974-38.58-47.474-65.98-56.906-16.684 5.738-27.03 5.49-31.255-13.14-23.133-4.445-42.9-32.252-67.849-9.075-10.746 5.495 22.182 8.549 2.092 21.196-12.468 5.617 16.105 14.227-7.5 16.039-14.26 6.165 23.226-1.377 26.928 9.094 16.605 22.853 52.544-7.585 64.582 5.425-13.203 11.365-42.926 23.083-15.469 38.175 18.687 10.117 45.121-8.941 55.03 13.447l-.045-1.794zm-73.127-56.464c-5.235-14.382 13.208-.18 0 0zm-18.998-16.183c-11-12.983 17.445 1.197 0 0zm216.592 52.12c-5.894-6.18-.603 6.615 0 0zm-8.644-7.382c-11.18-11.864-14.327-1.545 0 0zm-268.94-36.833c-1.634-7.692-16.935 6.02 0 0zm16.329-7.69c-1.208-6.35-7.257 6.578 0 0zM93.922 110.307c-4.779-7.463-4.778 7.462 0 0zm78.24-15.86c24.042-11.742 18.11-44.942-11.828-28.91-9.332-1.005-10.386-14.894-13.35 3.928 7.5 12.33 11.075 16.726 4.132 30.638 7.24 2.22 14.952-2.323 21.046-5.656zm119.603-10.069c-.938-21.359-18.874 19.272 0 0zm-157.59-13.374c10.24-26.544-21.21 9.922 0 0zm69.243-10.619c-5.862-4.242-8.694 6.702 0 0zm287.51 69.786c-3.71-12.282 11.431 4.03 0 0zm-85.805-26.936c-16.536-10.67 30.229 1.715 4.998 1.944l-4.998-1.944zm-68.196-75.59c-8.62-6.92 14.435 5.184 0 0zm-25.933-1.923c-28.139-4.286-53.907-21.064-83.19-18.387 23.923-3.358 52.6-6.036 75.863 2.503 15.9.602 35.687 13.52 11.827 17.16l-4.5-1.276z" fill="#92a99a"/><path d="M263.93 531.216c-35.205-3.33-71.288-7.075-103.262-23.132-29.419-8.565-56.448-26.04-78.45-46.995-12.032-25.361-27.277-46.88-43.076-70.116-20.321-26.876-29.117-60.424-34.067-93.193-3.083-38.254 2.94-77.04 12.517-114.01 14.768-29.622 29.539-59.951 52.414-84.422 10.265-13.917 25.261-33.391 34.297-15.088 30.448-2.53-7.21-32.873 22.921-40.115 5.742-11.069 45.925-10.882 29.42-14.556 11.389-3.779 43.873-19.257 46.21-10.39-23.437 1.788-39.667 15.085-13.031 29.354 7.497 9.716-41.633 25.84-38.157 9.85-16.876 14.405 17.364 25.156-1.711 40.378 27.71 8.209 38.668-42.045 66.92-13.582 12.908 6.547-29.252 21.098-3.948 20.851 9.005 12.92-14.939 18.677-.905 27.743-14.057-.207-18.69 13.922-1.137 11.59 11.96-15.27 29.911 32.378 51.124 12.57 5.588-8.283 23.078-13.452 17.175 1.695-6.36 8.608-30.746 11.693-9.581 27.34 14.216 21.322 41.601 5.167 54.661 6.852 14.23 29.51 9.901-23.465 29.796-24.383 18.965-4.621-17.093 27.04 10.943 18.997 11.825-7.146 10.19-32.784-4.47-26.523-13.785-15.094-1.654-34.53 13.549-14.644 15.573 3.1 4.07 33.114 21.378 25.637-6.068-11.836 9.693-21.17-11.086-29.902-10.119-5.627-38.482-27.976-13.526-17.336 19.898 2.482 33.135 27.109 50.751 23.043-11.654 20.492 26.034 2.908 4.917-5.986 6.824-13.363 26.866-14.187 13.924-33.285 18.426 2.34 41.734 25.09 56.89 26.8 9.835-20.57-20.111-40.843-26.56-61.037 25.848 3.14 39.97 27.913 57.023 45.108 27.158 29.699 39.827 68.834 49.604 106.839 7.47 43.144 8.252 88.777-4.082 131.056-20.523 49.498-43.716 102.777-91.23 132.688-26.08 16.018-54.216 31.807-84.845 36.875-44.181 4.826-88.935 5.84-133.31 3.429zM72.79 405.186c-6.85-12.357-26.061-36.102-34.959-31.098 9.052 13.38 12.818 37.535 34.96 31.099zm167.578-166.858c.871-18.266-31.328 12.936-3.234 1.877l3.234-1.877zm106.015-25.132c-21.587-16.451 5.418 25.743 0 0zm-93.14-4.848c7.537-5.693 22.057-26.27-.181-11.535-8.868 4.593-27.078 22.973-4.491 12.353l4.671-.818zm-18.266-14.556c10.873-19.615-12.237 9.104-11.888-8.976-2.683 7.333 5.343 16.705 11.888 8.976zm222.973-12.358c-5.894-6.18-.603 6.616 0 0zM232.593 178.2c-11.681-1.91 3.508 3.73 0 0zm189.384-.953c-13.55-16.83-9.787 10.229 0 0zm27.329-3.193c-11.18-11.864-14.327-1.545 0 0zm-268.94-35.872c-1.736-12.56-22.503 10.107 0 0zm16.329-8.65c-1.208-6.352-7.257 6.577 0 0zM93.922 110.306c-4.779-7.463-4.778 7.462 0 0zm39.956-38.832c10.065-31.626-25.723 8.87 0 0zm154.064 81.064c11.83-13.575 6.495 9.388 0 0zm-27.586-7.041c-5.235-14.382 13.208-.18 0 0zm-18.998-16.183c-11-12.983 17.445 1.197 0 0zm249.57.856c-3.71-12.282 11.431 4.03 0 0zM286.02 117.996c11.086-15.461 4.929 14.06 0 0zm-29.615-22.382c-.102-14.123 8.938 10.743 0 0zM228.39 6.499c36.958-6.61 7.923 7.452 0 0z" fill="#9ecf66"/><path d="M263.93 531.216c-35.205-3.33-71.288-7.075-103.262-23.132-29.419-8.565-56.448-26.04-78.45-46.995-12.04-25.362-27.265-46.894-43.102-70.116C8.766 347.24-1.76 291.672 6.938 239.59c5.287-26.061 4.426-55.068 22.983-76.418 3.176-15.984 30.704-15.486 14.385-27.152 5.51-25.913 34.008-41.578 54.866-22.462 23.19 10.284 46.298 3.223 69.136 10.833-.399 21.672 11.057 12.566 24.744 9.836 5.179 9.843 16.232 15.765 22.988 5.71 15.324 22.178 43.339 26.594 60.675 9.029 18.056 19.819-36.42 17.047-7.112 38.023 14.78 21.932 41.667 3.93 55.628 7.714 5.595 14.031 14.003 11.416 15.732 24.586 7.509 6.537 35.314 4.04 16.536-9.834-11.588-25.757 12.28-4.147 16.888-7.836-14.267-7.998 10.913-45.942-13.854-39.688-13.785-15.094-1.654-34.53 13.549-14.644 15.573 3.1 4.07 33.114 21.378 25.637-6.068-11.836 9.693-21.17-11.086-29.902-10.119-5.627-38.482-27.976-13.526-17.336 19.898 2.482 33.135 27.109 50.751 23.043-8.72 16.953 19.075 5.256 22.66 23.884 15.446 10.302 34.36 16.85 41.376 35.185 14.487-4.883-3.148-29.885-7.937-39.512-20.789-15.405-33.127-33.982-37.91-56.216 14.672-2.567 40.59 15.419 55.912 28.995 1.796 15.162 38.311 44.381 18.41 13.867-6.689-27.47-25.639-47.962-38.533-72.384-13.402-17.642 28.353 4.458 30.583 14.056 17.396 24.096 37.735 45.422 51.522 70.568 16.742 38.774 26.916 80.46 24.893 122.83.533 35.21-6.347 70.258-23.53 101.368-17.918 39.464-41.497 78.387-79.798 101.515-31.314 18.622-65.325 36.736-102.871 36.99-37.392 2.641-75.01 3.602-112.446 1.34zM72.79 405.186c-6.85-12.357-26.061-36.102-34.959-31.098 9.052 13.38 12.818 37.535 34.96 31.099zm242.674-132.001c14.19-3.955-14.47-21.113 8.016-17.68 12.887-6.131 30.146 19.306 29.805-.995-26.236-4.028-49.298-17.75-74.36-26.278 4.232 8.922 24.988 31.952-1.917 20.308-10.288 6.447-33.955-17.67-19.322 4.223 17.096 7.155 36.671 4.857 46.63 23.854 4.145 3.004 8.066-1.634 11.148-3.432zM246.34 245.71c3.486-12.42.445-18.547 14.989-17.214-1.77-38.835-30.709 19.065-41.381-10.501.022-21.127-21.445-41.046-40.388-26.406-3.798 21.948-37.393-12.747-30.978 18.558 11.645 11.496 33.688 10.943 40.287 28.083 20.1-7.344 40.22 20.866 57.471 7.48zm-45.784-25.797c2.116-6.441 7.773 3.67 0 0zm73.643 19.134c-3.695-11.388-8.175 16.41 0 0zm119.398-11.362c.47-15.585-9.297-29.594-16.713-7.001-2.04 8.478 18.655 23.933 16.713 7zm38.058 2.311c-8.74-13.337-7.275 12.316 0 0zm-178.413-21.648c7.538-5.693 22.058-26.27-.18-11.535-8.868 4.593-27.078 22.973-4.491 12.353l4.671-.818zm-113.6-8.074c.15-11.897 16.218-21.983 1.259-27.848 13.886 7.541 43.904 12.067 24.998-11.961-14.42 7.406-40.836-.008-36.203 23.763-7.033 6.938-.814 24.465 9.945 16.046zm95.335-6.482c10.873-19.615-12.237 9.104-11.888-8.976-2.683 7.333 5.343 16.705 11.888 8.976zM103.57 176.148c14.709-16.002.793-47.824-20.048-26.245-12.823-6.639-31.205.053-23.741 13.517 12.539-11.053 27.707-5.077 37.047-10.782-11.844 11.006-5.116 23.071 5.866 25.886l.876-2.376zm129.024 2.05c-11.681-1.908 3.508 3.73 0 0zm189.384-.952c-13.55-16.83-9.787 10.229 0 0zm-227.962-58.045c-4.054-11.707-20.804-41.789 1.948-41.878 15.923 1.36 34.008 11.591 13.482 21.22-13.984.902-6.39 29.629-15.43 20.658zm92.006-1.205c11.086-15.461 4.929 14.06 0 0zm-127.746-9.612c.424-15.645 19.31 2.777 0 0zm98.13-12.77c-.101-14.123 8.94 10.743 0 0zm-136.289-16.76c-3.845-14.196-13.617-27.45 8.907-35.546 16.837-18.531 67.78-8.24 59.308 11.884-13.42 10.877-27.535 6.265-40.575 5.418 4.378 12.494-29.704 36.426-27.64 18.244zm14.97-8.093c8.927-26.059-25.312 10.91 0 0zm94.266-64.262c19.216-7.484 16.83 7.639 0 0z" fill="#8eb26d"/><path d="M272.574 531.982c-38.852-4.142-79.09-6.98-114.2-25.498-30.646-9.725-61.356-26.43-80.988-52.041-5.8-25.274-26.378-41.139-38.27-63.47-5.916-6.981-26.675-42.13-5.052-20.857 10.398 15.496 21.653 45.071 43.833 32.68 15.016.89 23.165 39.96 33.886 17.66-19.637.305-14.648-7.83.632-7.54 8.697-9.251-28.126-17.435-20.172-12.656 5.892-19.522-15.27-9.492-15.837-25.7-18.315-18.009-54.569-15.773-62.724-45.552-14.884-47.903-6.165-99.221 6.573-146.462 6.042-19.534 28.193-29.286 33.119-44.671-20.25-13.723 26.124-47.057 39.698-22.739 23.912 4.858 44.114 8.169 67.324 9.064 7.889 7.27 7.64 24.983 25.19 13.942 21.044 8.749 41.385 5.014 59.084 23.43 10.58-.996 52.766-16.261 26.944 2.021-27.716 14.678 14.584 41.322 32.08 34.689 28.656-8.904 34.79 35.566 65.335 30.502 11.86 9.306 39.345 24.037 30.71-2.26 24.276-5.57-6.358-30.445-18.872-28.424.85-22.815-14.112-37.088-26.494-53.369 2.054-17.416 36.872 9.696 28.958 22.742 16.247 17.732 6.365-.777 12.4-7.797 7.96-14.516-48.136-31.932-30.819-37.354 19.398 9.215 44.155 20.008 55.536 35.997 19.47 17.816 47.358 27.19 60.056 51.409 10.206 19.28 17.221 13.577 12.667-5.561 1.843-26.905-21.565-41.063-36.776-59.32-1.19-9.559-29.156-47.597-5.716-29.624 29.815 2.681 45.45 33.319 58.234 56.703 9.682-1.926 20.918 20.915 17.496-.043-14.29-22.095-18.174-50.06-37.531-69.067-5.436-9.95-31.36-38.94-3.439-22.358 26.789 14.272 36.757 45.542 52.589 69.75 11.987 26.808 34.373 48.535 38.872 78.318 6.182 40.199 7.235 82.23-2.014 122.014-19.236 51.327-41.75 106.783-89.897 138.295-38.27 26.906-84.323 43.911-131.802 42.378-26.857.77-53.748 1.517-80.613.769zm-174.81-152.43c-5.226-13.017-7.13 10.035 0 0zm437.375-26.953c-.562-30.687-11.115 32.4-.589 4.048l.59-4.048zm-204.935-69.065c-28.35-2.59 1.559-38.775 17.138-16.654 12.665 3.965 32.11-9.276 13.598-16.139-2.979-15.2-44.898 5.105-34.418-15.274-30.872 12.624-32.645-38.364-61.817-23.097-25.733-3.406 17.87-25.135-6.772-19.284-14.12 5.06-22.553 26.482-30.09 29.755-12.195-15.774-5.546-42.628-34.91-39.712-18.908-6.783-20.118 23.874-40.373 8.883-13.922 26.193 24.269 39.594 41.738 52.48 25.816 5.431 51.974 26.661 79.834 22.648 18.676 1.657 36.072 20.775 56.072 16.394zm102.616-49.44c10.745-10.279-30.342-28.067-12.975-5.666 2.7 4.066 7.651 8.908 12.975 5.666zm-293.179-33.82c-4.533-33.11 47.942-1.38 34.772-35.083-8.346-17.093-49.713-.975-44.717 19.037-7.033 6.938-.814 24.465 9.945 16.046zm2.122-25.79c-1.784-9.534 11.993 9.69 0 0zm93.214 19.308c11.796-41.05-36.043 9.114 0 0zm186.32-18.295c-22.02-12.116 13.655 30.493 0 0zm-317.728.65c12.679-13.684 5.407-53.707-17.86-29.19-9.847 9.324-27.089-17.705-26.365 8.015-12.404 23.558 28.73-18 29.12 11.083 3.795 1.58 12.113 19.342 15.105 10.093zm182.452-58.15c11.086-15.462 4.929 14.059 0 0zm-95.118-13.504c-.714-14.287-9.8-37.047 13.109-24.875 28.936 4.086 8.27 16.43-4.862 23.51-1.225.38-6.917 5.487-8.247 1.365zm65.503-8.88c-.102-14.122 8.938 10.744 0 0zm-137.511-9.935c12.45-22.095 12.431 2.945 0 0zm19.118-13.647c11.012-12.531-.364 12.453 0 0zm-21.88-11.473c4.579-26.375 59.574-36.124 75.472-9.961-2.679 12.6-32.204 12.34-42.611 4.612-8.185 1.549-28.737 16.289-32.86 5.35z" fill="#6f8d73"/><path d="M240.878 527.17c-31.828-3.054-61.533-13.459-91.116-24.08-21.414-10.574-57.409-26.447-59.143-49.032 14.936-6.06-33.79-26.445-20.273-36.612 13.538 13.149 14.177 2.54 6.44-6.383 8.324 6.637 29.676 34.424 38.858 24.165-17.77-3.753 10.315-19.823-16.218-16.096-7.424-8.718 28.934-2.638 9.236-14.09-7.898-10.895-21.265 5.435-17.143-15.606-6.929-8.687-25.993-27.823-41.828-28.803-27.406-7.876-41.827-33.374-42.578-60.999-3.562-39.37 2.68-79.243 13.143-117.088 6.059-19.534 28.143-29.27 33.141-44.668-14.316-11.856 25.582-47.175 35.491-21.313 22.63-2.581 39.144 13.205 61.123 4.689 24.778 2.233 6.154 19.652 1.402 24.53 14.817.748 52.191-13.776 32.952 13.135-4.184 18.945 33.145 1.178 13.534 19.07-22.431-7.492-22.33 30.564-45.337 14.023-13.945 26.197 24.229 39.481 41.628 52.48 22.7 3.828 43.24 26.563 68.338 24.3 25.482-9.818 42.124 20.928 67.676 14.948-29.083-5.131 3.332-37.01 18.405-17.085 16.117 4.383 31.656-8.518 12.33-15.717-1.603-18.42-42.45-.147-24.23-24.187 21.805-4.903 50.245 22.626 63.601 10.996-8.285-15.93 20.262-10.93 6.55-28.217-10.173-25.831 26.68-4.147 37.968-12.509 5.417 19.874 21.088 6.074 2.667-4.61 9.471-17.317 35.955 26.056 47.078 30.115-.74-25.147-4.166-53.837-29.843-66.733-13.003-11.345-13.505-35.841 7.636-23.92 25.371 6.833 30.332 41.318 50.663 48.441 11.116-8.204-16.135-38.851-19.038-56.837-5.371-6.236-24.852-47.883-3.75-29.508 14.973 25.154 32.603 48.84 47.86 74.054 13.491 23.455 30.203 45.843 30.16 74.507 6.86 49.21 4.851 101.349-19.284 146.087-20.068 45.164-49.115 89.265-95.37 111.703-27.634 14.938-56.733 29.45-89.184 28.42-44.352 1.073-89.48 4.507-133.545-1.57zm-18.25-57.494c-14.12-9.615-4.408 11.917 0 0zm-88.366-38.334c-5.417-14.088-16.537-20.157-6.697-1.285 1.015 1.523 6.139 5.53 6.697 1.285zm-36.498-51.79c-5.226-13.017-7.13 10.035 0 0zm437.375-26.953c-.562-30.687-11.115 32.4-.589 4.048l.59-4.048zM432.82 234.094c10.745-10.279-30.342-28.067-12.975-5.666 2.7 4.066 7.651 8.908 12.975 5.666zm-4.645-25.746c-4.778-7.463-4.778 7.462 0 0zm-288.534-8.074c-3.337-32.134 46.191-1.71 36.71-35.63-9.088-26.438-28.94 1.807-45.056 6.18 3.07 9.419-15.722 37.248 8.346 29.45zm2.122-25.79c-1.784-9.534 11.993 9.69 0 0zm-38.194 1.664c12.679-13.685 5.407-53.708-17.86-29.191-9.847 9.324-27.089-17.705-26.365 8.015-12.404 23.558 28.73-18 29.12 11.083 3.795 1.58 12.113 19.342 15.105 10.093zM323.48 242.95c2.59-7.126 8.07 6.857 0 0zm-7.213-9.868c14.388-20.658 4.742 10.593 0 0zm-89.514-11.433c-3.197-15.986 10.293 11.28 0 0zm70.794 2.078c7.198-7.867 7.198 7.866 0 0zm-78.76-13.251c11.275-12.446 7.59 7.818 0 0zm-21.132-49.34c4.02-6.77 3.726 9.31 0 0zm-7.036-57.68c-3.18-11.865 10.117-29.224 10.81-9.578-1.636 2.46-6.892 18.617-10.81 9.578zm-71.724-17.778c12.45-22.095 12.431 2.945 0 0zm19.118-13.647c11.012-12.531-.364 12.453 0 0zm26.985-32.739c4.148-6.967 5.325 4.26 0 0z" fill="#6e924e"/><path d="M241.86 526.418c-25.47-7.695-57.752-1.26-76.914-23.124-20.642-5.77-55.957-11.04-66.486-37.145 28.114-15.256-32.122-21.347-30.258-46.46-2.924-9.42 24.714 15.432 11.414-2.84-7.34-17.48 17.04 21.408 27.815 19.447 17.158 12.971 4.24-31.812 18.57-8.832 7.074 7.986 36.304 24.573 19.095 2.355-3.08-11.14-10.883-18.276-8.963-25.438-17.882-3.616-19.597-9.957-16.929-24.985-14.446-8.582-8.767-24.084-31.983-24.262-12.243-13.43-17.663-1.407-21.562-.071-9.06-16.946-25.25-19.98-39.193-22.448-2.248-25.708-27.981-33.339-18.574-62.989 1.008-29.413 6.129-58.841 14.09-87.042 9.526-19.538 18.258-29.977 32.572-37.7-12.621-19.123 16.863-49.664 36.74-27.315 24.706.156 48.815 12.386 71.275 11.45 7.495 12.575-26.478 14.23-3.363 16.621 14.604-3.53 42.758-9.11 25.16 13.279-3.959 18.41 32.674 2.208 13.106 18.85-26.995 9.51-16.126-41.427-46.14-21.356-8.06.94-21.831 2.839-8.278 8.957-18.539-3.06-22.582 47.21-1.95 32.823 7.669-24.66 12.13.79 7.877 12.634 18.573 24.675 45.99 44.717 77.703 48.127 21.996 7.456 36.816 30.234 61.25 18.053 14.887 3.043 38.461 19.607 49.492 11.46-18.262-3.087-18.585-32.45 4.163-23.58-18.027 19.117 43.953 4.963 28.58-14.499-6.386-18.741-50.66 2.609-33.432-23.64 25.004-6.611 49.425 26.463 68.264 15.337-12.093-26.2 41.783 8.51 31.712-17.029-10.106-7.427-52.524-28.358-18.039-29.463 12.671 10.696 26.793-7.858 33.772 11.85 19.076 2.218-25.623-28.916 6.417-17.478 22.257 4.57-.138 24.676 20.61 24.05 9.628 19.746 26.421 15.527 14.176-5.804 13.036-30.884-25.71-45.09-35.502-69.023-10.828-22.48 34.763-2.882 36.217 10.683 8.891 12.572 13.657 37.188 23.634 43.077-5.023-26.885 23.2 11.064 12.6-11.575-6.39-25.78-20.784-49.453-33.646-72.815-14.143-10.77-1.91-32.93 7.154-9.36 15.633 28.132 35.258 54.23 47.73 83.976 1.674 13.924-2.483 31.178 14.877 23.245 11.995 22.302 12.437 50.24 13.019 75.382.46 33.05-1.47 66.804-17.029 96.838-20.155 55.286-58.58 106.302-114.7 129.679-36.85 21.563-80.353 22.272-121.893 22.058-27.998-.718-56.901 3.535-84.25-3.958zm12.956-34.04c-14.999-6.83-23.775-1.33-2.902 2.223l2.481-.485.42-1.738zm-76.21-8.992c13.62 3.674-26.271-31.804-11.405-8.49 6.986 10.057-5.945 9.359 11.405 8.49zm44.022-13.71c-14.12-9.615-4.408 11.917 0 0zM189.39 453.93c-15.067-15.128 28.996-16.567 5.547-29.42-8.971-3.62-52.604-10.887-41.34 1.19 14.066 2.646 33.842 14.633 8.625 18.226-23.142-2.48 33.348 21.468 27.168 10.004zm48.222-1.826c9.627-16.552-23.384-6.255-10.51-23.187-9.275-29.898-34.337-3.994-17.158 15.155 6.44 6.586 18.682 13.58 27.668 8.032zm19.594-8.266c-11.624-11.953-7.513 11.18 0 0zm-82.603-31.606c-7.201-12.08-6.6 7.141 0 0zm-31.707-30.883c-12.688-9.849 8.457 12.995 0 0zm394.67-25.22c8.792-33.636-28.162 5.971-4.88 11.617 3.25-3.069 3.919-7.55 4.88-11.616zM363.82 275.63c-2.589-7.125-8.07 6.857 0 0zm13.29-3.089c9.219-11.66-24.284 4.981 0 0zm46.458-20.94c-15.122-6.203 5.884 8.905 0 0zM149.63 225.65c-4.61-7.664-3.044 7.14 0 0zm328.49-2.77c-8.795-16.851-5.55 11.233 0 0zm58.842-2.075c-8.9-7.273 2.088 11.442 0 0zm-108.787-12.456c-4.778-7.463-4.778 7.462 0 0zm-324.648-31.903c16.244-17.576 2.57-60.107-20.607-29.722-6.786 12.331-19.696-25.961-23.507.777-5.366 16.13-2.66 19.957 11.233 9.07 17.758-11.217 21.801 29.073 32.88 19.875zm-88.974 149.84c-6.334-17.727 12.46-1.545 0 0zm302.675-95.35c23.133-16.925 0 10.286 0 0zm-19.681-7.208c7.198-7.867 7.198 7.866 0 0zm-74.919-15.38c4.778-7.462 4.778 7.463 0 0zm336.174-8.537c2.48-9.135 4.035 7.14 0 0zm-417.04-25.326c-1.783-9.534 11.994 9.69 0 0zm55.893-13.348c4.02-6.77 3.726 9.31 0 0zm-2.017-60.922c-8.073-15.637 10.839-19.98 4.829-4.488.888-5.554-3.45 7.843-4.83 4.488zm-30.64-60.922c4.148-6.967 5.325 4.26 0 0z" fill="#6a9231"/><path d="M241.86 526.418c-25.47-7.695-57.752-1.26-76.914-23.124-20.642-5.77-55.957-11.04-66.486-37.145 28.114-15.256-32.122-21.347-30.258-46.46-2.924-9.42 24.714 15.432 11.414-2.84-7.34-17.48 17.04 21.408 27.815 19.447 17.34 12.39 4.278-32.895 19.614-7.752 15.735 9.665 52.044 35.596 62.012 23.77-12.223-15.427 27.494-11.323 7.262-30.22 15.704-11.388 4.803 35.556 29.88 31.132 19.098 4.897 13.97-17.998-1.487-13.923 8.588-21.106-23.133-44.712-40.536-40.967 8.755 25.538-23.819 4.545-37.96 11.79-14.929-7.641-42.282-14.25-19.548-31.695 11.295-3.338 46.374 24.972 29.574-3.915-16.675-1.988-25.158-34.998-47.975-21.252-14.852-27.106-53.132 5.23-58.707-25.9-22.904-20.176-52.295-44.066-39.973-78.666 5.277-22.966 10.203 33.56 17.876 18.981-17.055-24.71-10.105-57.19-6.332-84.71 10.818.34 31.085 7.146 16.28-9.481 13.195-2.667 31.367 5.746 24.465 18.057 15.454 12.802 35.04 10.533 50.295 23.624 21.63 4.22 37.511 11.96 51.946 27.807 29.205 6.348 59.596 12.15 85.146 27.698 16.48 20.012 41.265-2.116 61.543 14.367 15.915 7.693 29.257 9.117 37.144-9.72 20.793-3.056 37.133-26.786 8.399-33.842-13.806 5.209-36.952-6.169-14.98-14.989 28.172 2.425 49.767 20.505 77.431 26.24 14.844 1.888 34.77 37.018 35.788 30.035-13.128-7.485-10.687-45.526 5.574-29.012 25.59 15.023-18.987-29.001-29.465-33.816-15.233-2.664-41.792-28.816-9.952-23.636 12.094 9.17 25.01-8.037 31.701 11.142 19.076 2.218-25.623-28.916 6.417-17.478 22.296 4.418-.19 24.85 20.6 23.843 10.745 10.262 32.57 35.912 41.272 32.175-15.268-25.352-19.189-57.97-40.3-81.564-16.818-6.395-40.134-48.842-5.74-31.972 28.139 11.394 28.688 47.619 46.128 68.79 3.948 16.053 25.386 36.256 18.266 5.653-3.067-29.155-19.677-53.305-31.3-79.464-2.546-9.18-30.094-41.02-9.96-36.891 18.819 30.605 40.458 60.247 53.889 93.745 4.382 13.028-1.773 55.105 13.177 50.368.392-11.081 4.72-37.795 8.687-11.431 8.433 39.813 7.732 81.454 1.366 121.457-19.299 62.065-51.806 126.373-113.277 156.813-31.748 18.01-67.345 29.583-104.3 28.295-38.343-.754-77.846 5.153-115.51-3.364zm-79.109-35.179c2.883-15.884 32.295 1.485 13.195-15.93-10.983-17.947-48.479-6.7-27.066 13.938 2.494 5.201 12.174 11.732 13.871 1.992zm92.065 1.139c-14.999-6.83-23.775-1.33-2.902 2.223l2.481-.485.42-1.738zm-32.188-22.702c-14.12-9.615-4.408 11.917 0 0zm34.578-25.838c-11.624-11.953-7.513 11.18 0 0zM235.02 394.62c-13.564-7.499-29.822 7.976-3.606 1.333l3.606-1.333zm-10.822-11.967c.45-11.897-25.185 11.211-2.257 5.207l1.503-1.79.754-3.417zm-14.157-9.147c-8.913-4.275-.144 9.868 0 0zm-13.345-3.68c-16.452-16.274.364 10.377 0 0zm341.835-11.79c9.072-25.774-16.316-19.436-16.232.635 2.458 11.85 15.563 12.182 16.232-.636zm-400.776-43.479c-7.936-6.456-21.982-23.5-13.444-4.274 8.788 4.725 34.819 21.839 13.444 4.274zm152.47-3.716c-11.682-1.909 3.507 3.73 0 0zm-189.213-9.717c-10.938-5.422 7.587 11.548 0 0zm14.37-5.608c12.73-23.344-19 13.182 0 0zm291.143-3.66c4.285-20.844-10.623-.522-5.212 6.842l2.336-2.01 2.876-4.832zm-330.037-.062c1.4-14.502-7.48-22.402-6.868-2.195-1.324 4.198 11.88 10.231 6.868 2.195zm308.376-3.188c16.788-36.13-51.638-13.91-19.82 4.932 6.32 3.389 20.967 7.155 19.82-4.932zm-17.856 1.28c20.437-20.217 16.907 12.207 0 0zm-306.21-10.892c-16.096-10.949-10.05 7.508 0 0zm417.323-10.848c-9.66-13.173-4.624 9.171 0 0zM66.807 231.593c-3.575-16.287-22.258 5.436 0 0zm411.313-8.714c-8.795-16.851-5.55 11.233 0 0zm-439.427-6.193c-13.64-2.169 1.334 3.408 0 0zm389.482-8.338c-4.778-7.463-4.778 7.462 0 0zM57.423 185.393c-6.872-11.633-18.428 7.11 0 0zm63.439 174.47c-9.906-9.917 23.215 4.375 0 0zm-106.31-33.578c-6.333-17.727 12.461-1.545 0 0zm302.676-95.35c23.133-16.925 0 10.286 0 0zm-19.681-7.208c7.198-7.867 7.198 7.866 0 0zM109.15 209.14c-.67-18.066 13.705 6.14 0 0zm113.478-.793c4.778-7.463 4.778 7.462 0 0zM90.08 197.775c-17.782-2.107-19.485-23.347.351-8.069 10.333 6.268 31.495-3.612 11.574 9.206-3.668 2.615-8.572 1.08-11.925-1.137zm24.973-12.496c6.216-12.634 6.216 12.635 0 0zm73.573-7.17c-16.941-1.45-9.205-38.166-34.545-22.593-19.903 4.396-47.046 3.759-48.626-19.255-19.399 8.827-38.503 8.643-55.704-5.543 10.89-36.438 41.927-9.382 66.41-10.959 12.114 15.08 53.166-4.087 44.499 19.627-26.994 8.767 19.014 4.266 28.499 2.87-5.196 13.69-6.756 32.493 14.66 27.136.068 7.877-8.004 11.907-15.193 8.717zm9.03-16.973c4.018-6.77 3.725 9.31 0 0zm-2.018-60.922c-8.073-15.637 10.839-19.98 4.829-4.488.888-5.554-3.45 7.843-4.83 4.488zm-30.64-60.922c4.148-6.967 5.325 4.26 0 0z" fill="#669313"/><path d="M241.86 526.418c-25.47-7.695-57.752-1.26-76.914-23.124-20.642-5.77-55.957-11.04-66.486-37.145 28.114-15.256-32.122-21.347-30.258-46.46-2.924-9.42 24.714 15.432 11.414-2.84-7.34-17.48 17.04 21.408 27.815 19.447 17.34 12.39 4.278-32.895 19.614-7.752 15.735 9.665 52.044 35.596 62.012 23.77-12.223-15.427 27.494-11.323 7.262-30.22 15.704-11.388 4.803 35.556 29.88 31.132 19.098 4.897 13.97-17.998-1.487-13.923 10.564-19.734-29.156-51.558-41.593-36.775 8.515 19.69-26.056.098-36.903 7.598-14.929-7.641-42.282-14.25-19.548-31.695 11.08-5.17 43.071 25.923 31.58-2.29-15.35-11.233-30.488-32.99-50.219-22.818-14.1-27.204-53.148 5.168-58.377-26.027-18.644-19.594-50.058-37.464-41.193-69.287-2.331-16.72 9.047-20.987 8.623-1.758 1.944 21.21 24.378 7.727 25.453 19.44 10.909 12.822 32.329-9.389 27.12 14.048 6.225 11.046 20.426-5.831 27.06 12.482 8.371 9.734 25.079-17.083 27.304 8.28 7.359-10.115 34.406 9.605 10.66 1.302-12.653-.686 26.32 23.502 13.197 2.35 23.599 15.238-17.934-32.907 7.399-11.915 11.684 14.882 37.13 21.672 53.914 22.406 6.656-18.532-27.278-38.603-44.51-26.878-7.239-12.202-14.69-26.201-22.224-10.601-14.908-5.484-11.471-29.292-35.5-25.908-19.28-6.8-48.173-6.224-41.188-32.71-14.58-12.412-37.114-6.99-48.375-14.283.987-15.99-1.629-42.07 22.863-28.813 21.676-2.626 31.899 21.102 55.017 18.299 16.417 21.423 52.262 10.45 64.622 37.64 29.572 6.897 59.43 13.5 86.56 26.943 16.723 23.316 42.926.094 64.352 16.708 15.915 7.693 29.257 9.117 37.144-9.72 20.793-3.056 37.133-26.786 8.399-33.842-13.806 5.209-36.952-6.169-14.98-14.989 28.172 2.425 49.767 20.505 77.431 26.24 21.187 10.87 42.829 52.92 58.655 15.045-15.913-22.147-35.48-44.569-61.865-55.583-25.922-14.674 3.714-20.129 17.558-12.376 9.4-15.852 24.658 22.156 23.386 2.385-31.75-24.379 29.898-10.263 11.292 8.21 21.586 4.518 33.85 32.706 53.514 38.194-14.41-25.295-18.773-56.432-37.954-80.744-12.202-4.002-44.419-48.763-14.524-35.806 31.292 3.631 33.447 42.913 48.375 64.13 5.38 13.927 28.08 45.871 21.852 10.705-3.067-29.155-19.677-53.305-31.3-79.464-2.546-9.18-30.094-41.02-9.96-36.891 18.819 30.605 40.458 60.247 53.889 93.745 4.382 13.028-1.773 55.105 13.177 50.368.392-11.081 4.72-37.795 8.687-11.431 8.433 39.813 7.732 81.454 1.366 121.457-19.299 62.065-51.806 126.373-113.277 156.813-31.748 18.01-67.345 29.583-104.3 28.295-38.343-.754-77.846 5.153-115.51-3.364zm-79.109-35.179c2.883-15.884 32.295 1.485 13.195-15.93-10.983-17.947-48.479-6.7-27.066 13.938 2.494 5.201 12.174 11.732 13.871 1.992zm92.065 1.139c-14.999-6.83-23.775-1.33-2.902 2.223l2.481-.485.42-1.738zm-32.188-22.702c-14.12-9.615-4.408 11.917 0 0zm34.578-25.838c-11.624-11.953-7.513 11.18 0 0zM235.02 394.62c-13.564-7.499-29.822 7.976-3.606 1.333l3.606-1.333zm-10.822-11.967c-1.299-6.825-37.728-18.707-31.642-9.193 6.175 4.568 28.191 24.144 31.642 9.193zm314.333-24.618c9.072-25.773-16.316-19.435-16.232.636 2.458 11.85 15.563 12.182 16.232-.636zm-220.43-6.131c-7.041-12.996-13.85-14.52-16.374-3.224-18.067 5.898 13.597 6.887 16.375 3.224zm18.662-10.98c-14.947 2.779-1.063-7.856-5.735-11.468-14.669 5.46-14.014 24.607 5.735 11.468zm-22.273-13.871c-14.866-3.89-24.17-21.22-45.286-16.253-22.082-.942-42.723-5.213-60.825-12.858-4.578 5.832 20.661 9.037 22.629 21.058 14.216 5.242 24.062-10.016 39.114 1.07 15.47-7.73 37.602 17.636 44.368 6.983zm91.568-33.396c5.641-18.24-49.573-39.835-49.715-7.615 8.624 10.673 42.184 19.334 49.715 7.615zm72.063-70.78c-8.795-16.85-5.55 11.234 0 0zm-49.945-14.53c-4.778-7.463-4.778 7.462 0 0zM14.553 326.285c-6.334-17.727 12.46-1.545 0 0zm115.867-36.123c4.865-7.542 5.282 4.045 0 0zM25.864 259.153c-9.491-29.543 21.096 8.822 0 0zm-4.94-27.624c6.122-11.975 4.066 8.46 0 0zm296.304-.594c23.133-16.925 0 10.286 0 0zm-19.681-7.208c7.198-7.867 7.198 7.866 0 0zm-74.919-15.38c4.778-7.462 4.778 7.463 0 0zm-34.002-30.238c-16.941-1.45-9.205-38.166-34.545-22.593-19.903 4.396-47.046 3.759-48.626-19.255-19.399 8.827-38.503 8.643-55.704-5.543 10.89-36.438 41.927-9.382 66.41-10.959 12.114 15.08 53.166-4.087 44.499 19.627-26.994 8.767 19.014 4.266 28.499 2.87-5.196 13.69-6.756 32.493 14.66 27.136.068 7.877-8.004 11.907-15.193 8.717zm9.03-16.973c4.018-6.77 3.725 9.31 0 0zm-2.018-60.922c-8.073-15.637 10.839-19.98 4.829-4.488.888-5.554-3.45 7.843-4.83 4.488zm-30.64-60.922c4.148-6.967 5.325 4.26 0 0z" fill="#516d4e"/><path d="M255.137 525.857c-12.174-8.49 15.623-6.56 5.612-20.961 30.96-9.82-29.105-36.659-31.185-12.128-16.04 13.812-24.83-20.107-44.382-15.78-12.251-17.062-32.105-16.905-42.991-5.37-2.79-7.736-35.778-9.32-23.55-18.306 11.683 11.67 17.554-.922 9.194-10.708 20.943-6.965 55.49 37.258 67.067 14.613-8.535-18.08 29.475 3.612 10.37 4.996-3.804 34.016 43.377 10.168 56.874 11.817-12.859-7.08-33.356-18.486-11.675-22.54 30.01 12.997-1.125-25.26-7.413-35.572-2.775-17.972-23.64-19.609-15.028-4.518-13.422 9.22-41.93-32.307-43.89-5.175 3.16 13.034-21.014-3.996-30.279 2.999-11.94 4.913-22.309-13.864-32.206-15.672.175-18.509 15.502-21.455 22.707-4.844 6.096-8.117 18.88 13.302 15.426-6.424-9.018-20.254-35.374-34.266-53.293-31.409-16.143-23.386-51.51 7-56.843-23.58C32.186 308.24.95 291.656 8.586 261.2c-1.552-14.619 7.538-27.493 8.496-4.949 1.944 21.21 24.378 7.727 25.453 19.44 10.909 12.822 32.329-9.389 27.12 14.048 6.225 11.046 20.426-5.831 27.06 12.482 8.371 9.734 25.079-17.083 27.304 8.28 7.359-10.115 34.406 9.605 10.66 1.302-12.653-.686 26.32 23.502 13.197 2.35 23.599 15.238-17.934-32.907 7.399-11.915 11.684 14.882 37.13 21.672 53.914 22.406 6.656-18.532-27.278-38.603-44.51-26.878-7.239-12.202-14.69-26.201-22.224-10.601-14.908-5.484-11.471-29.292-35.5-25.908-19.28-6.8-48.173-6.224-41.188-32.71-14.6-12.409-37.081-6.991-48.395-14.288.189-16.51.436-40.488 23.722-28.97 22.059-3.204 30.495 22.592 53.678 19.019 14.253 21.706 51.3 8.027 62.487 34.694 27.016 14.119 64.195 16.282 86.013 36.401-4.742 11.253 13.668-.357 21.53 9.613 23.951-17.01 54.618 18.468 73.853 3.195 3.032-15.276 27.878-21.83 15.138-3.39 11.41 12.813 59.496 27.002 52.605-1.828-23.218 1.69-43.85-44.208-9.969-33.28 25.199-5.15 42.963 19.674 58.915 35.99 18.498-4.902 28.74-16.698 12.694-31.428-7.91-10.341-44.412-36.374-16.457-37.903 10.021 22.984.422-15.109 15.189 3.03 4.306 15.228 21.61 18.756 14.225-1.443 8.943 15.09 28.351 20.01 39.9 31.931-11.776-24.218-18.655-52.661-32.247-77.787-8.974-11.816 6.822-28.735 10.85-5.889 10.94 16.814 25.927 54.592 39.572 55.387 5.32-28.212-18.24-56.837-17.94-80.536 26.386 17.293 30.839 49.511 34.353 77.288-3.797 17.247 12.974 27.652 11.003 4.177 5.785-29.987 11.733 38.827 11.942 50.606 3.196 39.22-2.061 79.406-21.078 114.428-17.647 40.189-41.774 79.47-80.18 103.327-31.689 19.25-66.436 36.278-104.48 36.513-38.951 1.568-78.985 4.212-117.553-1.547zm-20.118-131.236c-13.564-7.499-29.822 7.976-3.606 1.333l3.606-1.333zm-10.822-11.967c-1.299-6.825-37.728-18.707-31.642-9.193 6.175 4.568 28.191 24.144 31.642 9.193zm313.968-23.98c11.619-20.754-15.46-25.563-13.94-3.265-6.542 11.299 12.392 20.867 13.94 3.265zm-220.064-6.77c-7.042-12.995-13.852-14.52-16.375-3.223-18.067 5.898 13.597 6.887 16.375 3.224zm18.66-10.98c-14.946 2.78-1.062-7.855-5.734-11.467-14.669 5.46-14.014 24.607 5.735 11.468zm-22.272-13.87c-14.866-3.89-24.17-21.22-45.286-16.253-22.082-.942-42.723-5.213-60.825-12.858-4.578 5.832 20.661 9.037 22.629 21.058 14.216 5.242 24.062-10.016 39.114 1.07 15.47-7.73 37.602 17.636 44.368 6.983zM142.214 494.717c-16.115-2.552-18.544-14.48-8.705-24.772 8.523 1.138 33.284 40.469 8.705 24.772zm80.414-32.617c-5.045-7.033 11.322 5.094 0 0zm-111.417-15.379c2.867-6.07 4.321 6.59 0 0zm86.586-23.858c-.585-14.856 12.11 9.308 0 0zM14.36 323.948c-2.24-10.187 6.664 3.425 0 0zm116.06-33.786c4.865-7.542 5.282 4.045 0 0zM25.864 259.153c-9.491-29.543 21.096 8.822 0 0zm-4.94-27.624c6.122-11.975 4.066 8.46 0 0zm91.72-77.213c-.183-12.65-4.054-22.35-18.587-21.922 5.798-22.461 55.88-2.05 46.681 9.803-25.058.768 27.416 12.59-4.269 12.949-7.868.136-16.11 1.075-23.825-.83zm10.91-14.534c-2.596-20.527-11.823 12.782 0 0zm-51.987.232c-12.499-2.571-19.789-6.384-2.599-13.275 5.584-1.784 9.302 12.244 13.744 1.276 3.747 9.212-.54 24.953-11.145 12z" fill="#588911"/><path d="M255.137 525.857c-12.174-8.49 15.623-6.56 5.612-20.961 30.96-9.82-29.105-36.659-31.185-12.128-16.04 13.812-24.83-20.107-44.382-15.78-12.251-17.062-32.105-16.905-42.991-5.37-2.79-7.736-35.778-9.32-23.55-18.306 11.683 11.67 17.554-.922 9.194-10.708 20.943-6.965 55.49 37.258 67.067 14.613-8.535-18.08 29.475 3.612 10.37 4.996-3.804 34.016 43.377 10.168 56.874 11.817-12.859-7.08-33.356-18.486-11.675-22.54 30.01 12.997-1.125-25.26-7.413-35.572-2.775-17.972-23.64-19.609-15.028-4.518-15.79 5.97-44.485-22.1-13.291-21.428 34.997-7.002-27.676-28.858-32.478-21.138-19.06 23.069-44.327-22.628-68.035-18.764-17.959-10.654-43.152-7.558-57.817-9.837-9.52-30.1-57.625-41.671-47.823-79.033-1.52-14.4 7.375-27.6 8.557-5.149 5.004 33.241 53.151 11.107 58.619 39.834 15.434 3.386 28.635 11.334 44.24 5.087 7.577 21.673 36.264 21.086 54.509 31.617 23.39 6.775 48.901-5.95 74.035-1.466 17.667.927 38.768-8.837 41.394 16.721 19.716 23.218 45.248-9.28 67.217 3.977 8.212-12.856-34.04-30.409-51.313-33.66-25.574-15.978-59.774-7.39-86.535-20.575-25.465-4.379-52.996 1.857-69.512-21.106-22.965-15.339-55.143-17.868-78.08-30.618 1.466-26.556-33.3-28.13-53.555-30.775-2.212-19.789 1.878-41.556 26.58-28.989 19.049 1.89 29.853 20.168 50.024 18.2 14.247 21.72 51.305 8.032 62.493 34.704 27.016 14.119 64.195 16.282 86.013 36.401-4.742 11.253 13.668-.357 21.53 9.613 23.951-17.01 54.618 18.468 73.853 3.195 7.906-18.252 22.614-19.232 17.436-1.117 12.627 8.244 51.463 26.32 56.972 14.885-2.618-18.35-17.408-26.86-33.668-35.156-11.086-28.603 31.545-19.725 43.16-10.416 21.097 7.06 26.574 39.022 54.062 27.832 7.64 15.049 30.073 10.414 12.55-3.452-12.492-21.791-41.713-39.125-47.661-60.626 6.29-18.253 21.689 18.876 14.757-4.318 10.79-6.988 28.4 37.26 24.62 4.375 6.15 5.528 29.39 23.87 40.416 27.766-12.132-25.604-21.205-52.841-33.574-78.733-7.052-11.492 8.926-23.967 11.773-3.037 10.94 16.814 25.927 54.592 39.572 55.387 5.32-28.212-18.24-56.837-17.94-80.536 26.386 17.293 30.839 49.511 34.353 77.288-3.797 17.247 12.974 27.652 11.003 4.177 5.785-29.987 11.733 38.827 11.942 50.606 3.196 39.22-2.061 79.406-21.078 114.428-17.647 40.189-41.774 79.47-80.18 103.327-31.689 19.25-66.436 36.278-104.48 36.513-38.951 1.568-78.985 4.212-117.553-1.547zm.667-126.33c11.754-25.669-54.32-5.203-33.3-2.442 15.054-4.99 23.142-1.509 33.3 2.442zm16.714-6.014c-6.755-11.198-15.22 10.161 0 0zm265.647-34.839c11.619-20.754-15.46-25.563-13.94-3.265-6.542 11.299 12.392 20.867 13.94 3.265zm-156.587-11.916c-1.635-17.007-27.268 10.51-2.17.523l2.17-.523zm72.644-32.496c-12.329-7.987-2.308 16.964 0 0zm-51.382-.687c-9.732-14.682-11.268 14.61 0 0zm28.336-1.614c-13.183-29.319-20.393 19.035 0 0zm77.65-13.743c-7.085-33.23-10.19 22.835 0 0zM142.215 494.717c-16.115-2.552-18.544-14.48-8.705-24.772 8.523 1.138 33.284 40.469 8.705 24.772zm80.414-32.617c-5.045-7.033 11.322 5.094 0 0zm-111.417-15.379c2.867-6.07 4.321 6.59 0 0zm86.586-23.858c-.585-14.856 12.11 9.308 0 0zm-23.646-13.943c-16.698 2.493-47.136-2.855-52.011-19.39 4.281-21.72 15.332-8.7 24.614-.438 5.91-10.42 9.928 14.481 17.943-4.175 10.095-5.076 36.793-7.623 30.493 4.479-22.455-3.812 2.193 35.959-21.04 19.524zM14.36 323.948c-2.24-10.187 6.664 3.425 0 0zm98.284-169.632c-.183-12.65-4.054-22.35-18.587-21.922 5.798-22.461 55.88-2.05 46.681 9.803-25.058.768 27.416 12.59-4.269 12.949-7.868.136-16.11 1.075-23.825-.83zm10.91-14.534c-2.596-20.527-11.823 12.782 0 0zm-51.987.232c-12.499-2.571-19.789-6.384-2.599-13.275 5.584-1.784 9.302 12.244 13.744 1.276 3.747 9.212-.54 24.953-11.145 12z" fill="#4e6f2e"/><path d="M258.647 528.015c-6.697-11.02 28.557-36.97-2.91-42.733-22.376-16.003-30.706 29.499-46.075 2.14-23.842-10.129-44.234-34.09-74.102-21.645-14.74 6.014-29.124-22.665-9.644-7.676 16.023.302-9.301-26.34 15.12-14.306 18.8 6.997 57.834 38.271 56.12 5.513 12.571 6.99 15.557 7.13 7.52 18.206 5.507 28.253 40.527 1.953 57.752 8.017-7.305-10.983-38.088-16.025-12.001-23.945 27.57 15.254 17.386-35.595-2.826-34.661 8.614-6.63 32.587 9.267 8.245-5.517-14.693-1.454-17.942-29.378-3.803-11.23 17.977-6.575-18.757-28.524-23.849-9.539-.664-24.844-28.493-15.995-43.178-28.38-19.617-3.357-7.941 8.015-4.139 10.369-29.6 15.631-42.454-40.317-70.905-22.134-12.132-27.54-53.111 2.736-57.176-24.547-18.256-17.135-44.319-30.375-43.12-59.464 11.323-1.878 26.231 23.126 44.822 16.823 15.26-.92 9.709-3.215 14.67 12.351 7.61 10.305 19.43-8.824 25.056 9.823 12.244 13.133 26.857-21.518 25.38 5.776 20.67 16.28 47.832 23.194 72.785 29.206 8.1-11.31 35.157-14.748 49.658-3.316 8.873-10.47 32.429-8.696 42.631-3.398 2.62 31.964 35.902 25.792 54.995 13.51 15.138 7.626 31.695 3.53 10.902-10.112-20.224-13.115-44.276-17.255-63.494-30.631-15.656 11.461-41.875-12.583-50.536-4.027-12.901.505-28.758-16.349-37.037-4.877-12.103-9.35-22.814-10.206-34.276-5.214-7.72-24.34-27.04-14.666-42.61-31.302-15.422-2.366-36.184-7.554-50.926-13.025 4.705-25.145-21.867-29.49-39.667-35.662-21.66 16.673-12.21-41.932 10.53-23.9 19.64-.291 28.65 22.163 48.887 18.049 20.94 17.469 52.784 13.746 68.856 38.612 28.026 6.376 58.66 12.463 82.512 27.885-4.372 13.434 13.414 4.481 24.112 11.583 26.56-17.719 61.905 28.877 78.644-2.972 8.018-2.988 17.065 21.322 31.166 23.264 9.285 16.758.833-15.458 17.332-1.898 13.765 8.05 27.46 2.636 14.058-9.911 9.19-22.573-44.805-18.818-26.754-44.982 27.44-1.981 53.654 12.336 66.523 35.878 12.17 12.185 30.689-10.208 41.737 10.889 18.857-7.795-19.88-26.87-18.653-42.15-7.252-9.107-42.656-32.672-21.02-37.333 8.8 12.413 6.784 8.716 8.159-.809 12.309 1.997 16.055 25.956 29.964 14.469 23.047 6.294 21.188 37.753 37.861 44.784-1.073-26.45-13.452-49.943-22.356-75.848-5.701-11.76-26.964-41.39-10.13-42.567 15.87 24.075 21.887 56.035 45.51 74.043 13.322 15.018.02-37.588-2.933-47.412-7.551-18.14 3.042-23.046 10.983-4.31 6.436 22.532 1.04 58.069 15.426 72.001 4.76-11.763 8.747-27.374 12.39-4.865 13.228 14.236-13.049 53.681-3.708 52.83 10.675-13.49 3.557 26.401 4.248 33.7-5.445 28.669-18.741 55.286-30.855 81.607-15.757 30.638-37.338 58.118-66.558 77.208-33.019 20.967-70.366 37.647-110.31 37.339-36.316.878-72.688 1.415-109.003.423zm263.218-137.138c-5.991-28.257-7.145 28.172-.059 3.822l.059-3.822zm-249.347 2.636c-6.755-11.198-15.22 10.161 0 0zm264.709-24.167c14.516-12.034 3.49-52.173-11.903-25.123-8.905 18.406-17.437 28.626 11.903 25.123zm-374.15-3.364c-8.894-8.243-3.729 7.65 0 0zm196.302-10.925c-11.681-1.91 3.507 3.73 0 0zm11.526-1.923c-11.681-1.909 3.507 3.73 0 0zm10.673-6.376c-1.635-17.007-27.268 10.51-2.17.523l2.17-.523zm-95.557 0c-4.611-7.664-3.044 7.14 0 0zm-16.929-9.002c-11.681-1.91 3.508 3.729 0 0zm127.386-17.911c-17.636-13.064 8.136 13.824 0 0zm57.744-5.583c-12.329-7.987-2.308 16.964 0 0zm-51.382-.687c-9.732-14.682-11.268 14.61 0 0zm28.336-1.614c-13.183-29.319-20.393 19.035 0 0zm75.76 4.076c-11.897-7.496-28.711-22.377-9.274-3.154 2.145 1.064 7.736 8.488 9.273 3.154zm2.409-17.819c-2.301-33.642-14.34 21.602 0 0zm42.652-7.341c-6.193-5.27-.452 9.035 0 0zm4.823-17.65c-4.347-11.152-15.357-52.183-12.971-16.363 1.951 3.604 8.533 31.026 12.971 16.364zM88.16 227.572c-4.778-7.462-4.778 7.462 0 0zm39.878 260.702c-4.51-19.71 18.807 9.073 0 0zm94.591-26.173c-5.045-7.033 11.322 5.094 0 0zm-111.417-15.379c2.867-6.07 4.321 6.59 0 0zm108.432-36.692c1.701-16.043 22.737 8.87 0 0zm-56.907-3.275c-13.45 1.702-57.21-13.491-29.767-24.259 14.692 12.764 28.889 10.992 44.779 6.686 7.512 12.1-.569 22.6-15.012 17.573zm35.88-11.937c2.589-7.125 8.07 6.857 0 0zm-4.418-6.15c-9.792-3.957-41.064-5.392-12.165-6.08 5.655-12.143 21.914 10.078 12.165 6.08zm330.348-234.033c-21.403-32.16 28.413 9.236 4.395 4.748l-4.395-4.748zm-400.37-1.535c-17.384 2.866-12.487-26.752-29.09-23.5 10.332-16.217 48.339-1.641 47.867 12.38-29.132-.511 22.284 12.37-4.783 11.98-4.665-.28-9.33-.568-13.994-.86zm-.623-13.319c-2.596-20.527-11.823 12.782 0 0zm-50.653-2.753c-24.188-4.14-.374-9.744 7.256-6.862 8.325-8.863 2.104 22.244-7.256 6.862z" fill="#4a7114"/><path d="M258.647 528.015c-6.697-11.02 28.557-36.97-2.91-42.733-22.376-16.003-30.706 29.499-46.075 2.14-23.842-10.129-44.234-34.09-74.102-21.645-14.74 6.014-29.124-22.665-9.644-7.676 16.023.302-9.301-26.34 15.12-14.306 18.8 6.997 57.834 38.271 56.12 5.513 12.571 6.99 15.557 7.13 7.52 18.206 5.507 28.253 40.527 1.953 57.752 8.017-7.305-10.983-38.088-16.025-12.001-23.945 27.57 15.254 17.386-35.595-2.826-34.661 17.486-11.542 41.078 29.883 45.582-4.65-4.97-10.455-13.077-15.24 1.501-16.273-24.323-15.375-59.894-7.79-84.395-25.297-22.563-17.519-47.8 3.252-68.603-14.13-21.916-13.104-49.955-18.697-76.469-20.189-15.704-9.819-37.75-33.48-51.625-52.023-13.278-23.082 5.25-22.418 16.472-6.264 17.945 5.534 36.657 5.647 48.25 22.778 20.091 12.056 38.793-4.545 50.149 15.975 22.864 11.174 52.675 30.765 77.539 17.24 25.982-.915 52.262.273 76.002 4.782 7.264 35.128 48.069 12.81 71.801 16.096 14-.85 58.255 5.002 39.296-18.482-30.344 3.686-57.069-9.57-83.444-22.419-25.867-7.082-53.91-13.358-79.545-13.828-19.877-12.72-51.13-3.717-67.33-17.143-19.489-18.573-45.545-22.544-70.12-32.164-27.106 3.54-13.969-32.104-40.803-31.609-10.822-13.045-39.514 5.102-29.585-18.107.489-30.023 41.795-6.185 54.277 3.978 21.583 4.399 46.378 16.541 67.799 24.68 17.479 24.561 53.143 20.225 78.801 32.52 16.53-3.546 19.071 22.481 23.714 17.016 25.2 8.702 54.651-3.59 79.619 14.224 15.223 8.493 21.978-31.119 28.802-3.943 22.96 18.626 44.369 39.248 76.73 38.855 16.624 15.65 41.065 10.02 51.78 21.198 20.015-12.238-24.237-24.843-29.05-39.965-22.47-.387-45.336-12.727-51.674-32.95-16.381.648-39.217-28.792-13.183-28.317 32.15-3.23 47.205 26.727 68.466 41.645 26.987-1.886 39.948 36.227 63.654 26.322.282-29.065-31.77-31.668-44.237-54.023-6.497-17.313-41.957-31.314-31.565-47.791 8.52 3.425 14.765 17.273 10.056 1.176 13.745-4.4 17.145 26.51 31.819 13.239 23.283 3.842 22.37 44.88 38.935 43.15-1.748-29.24-16.27-56.037-27.763-82.712-12.477-7.886-17.02-51.093-1.408-26.474 13.24 23.583 21.474 53.032 43.667 69.218 9.145-1.453-5.075-42.744-6.313-58.182-3.695-25.775 21.585 15.365 15.017 26.464.656 15.474 6.525 71.037 19.548 34.45 9.942 5.938 8.89 43.819-.314 59.105-5.043 9.881-8.93 26.026 7.607 19.987 1.76 29.01-15.618 54.25-23.85 81.01-14.052 29.289-29.89 58.807-55.322 79.837-26.146 22.659-58.349 38.363-91.425 48.166-48.533 8.168-98.709 4.796-147.814 4.914zm161.386-112.946c2.951-23.13-7.967 13.392 0 0zm-21.962 1.017c32.12-13.401-64.822-16.619-22.018.1 7.124 2.343 14.844 1.57 22.018-.1zm-77.028-4.825c29.71-5.425-22.102-17.726-20.138-.395 6.676 4.011 13.057-1.322 20.138.395zm34.134.858c-4.778-7.463-4.778 7.462 0 0zm166.689-21.192c-3.647-27.506-14.733 21.14-.32 6.325l.32-6.325zm15.361-21.581c16.795-15.951.742-52.487-18.174-24.659 5.053 16.16-15.458 28.998 18.174 24.659zm-86-7.964c-7.502-13.159-20.61 10.774-.42 1.167l.42-1.167zm-22.17-9.731c-27.917-11.435 3.581 27.489 0 0zm128.458-71.152c-1.46-13.657-17.066-61.16-13.248-22.174 3.468 10.815 1.136 60.352 13.248 22.174zM88.159 227.57c-4.778-7.462-4.778 7.462 0 0zm39.878 260.702c-4.51-19.71 18.807 9.073 0 0zm94.591-26.173c-5.045-7.033 11.322 5.094 0 0zM111.211 446.72c2.867-6.07 4.321 6.59 0 0zm108.432-36.692c1.701-16.043 22.737 8.87 0 0zm-56.907-3.275c-13.45 1.702-57.21-13.491-29.767-24.259 14.692 12.764 28.889 10.992 44.779 6.686 7.512 12.1-.569 22.6-15.012 17.573zm361.81-252.12c-21.403-32.16 28.413 9.236 4.395 4.748l-4.395-4.748zM124.177 153.1c-17.384 2.866-12.487-26.752-29.09-23.5 10.332-16.217 48.339-1.641 47.867 12.38-29.132-.511 22.284 12.37-4.783 11.98-4.665-.28-9.33-.568-13.994-.86zm-.623-13.319c-2.596-20.527-11.823 12.782 0 0zm-50.653-2.753c-24.188-4.14-.374-9.744 7.256-6.862 8.325-8.863 2.104 22.244-7.256 6.862z" fill="#334a2c"/><path d="M342.762 527.853c-24.635-3.745-54.297 6.136-75.165-10.746-.785-13.122 29.23 3.483 12.644-11.387-14.213-6.9 23.464-9.544-2.77-17.425 1.208-7.472 43.405-14.674 11.559-18.505-22.625 7.333-23.612-37.498-14.25-36.808 29 6.76-25.172-15.17 1.059-12.01 11.208 21.416 24.894-16.33 9.343-23.42 24.322-1.888-20.93-14.496-30.877-12.69-17.18-4.27-31.053-5.83-48.665-18.496-2.86 6.094-32.925-20.011-38.026-.384-9.071-10.026-19.538 5.13-30.77-14.078-14.469-13.95-29.33-1.53-44.05-16.238-21.743-8.444-34.96 10.898-43.154-13.976-14.492-16.21-44.217-29.58-38.306-55.44 10.813 17.92 38.09 14.12 45.98 26.884-16.49 13.558 13.532-2.395 19.123 10.46 14.1.636 29 8.915 41.531 1.787 5.286 25.888 44.607 25.521 65.963 36.668 18.207-2.816 30.524-13.476 52.984-6.18 9.007 4.566 23.82-6.107 34.72 4.86 13.59-10.395 17.178 27.315 37.97 19.82 25.513-9.802 36.777-1.937 60.289-4.89 9.024-6.092 16.566 9.082 28.258-6.277-3.006-27.734-47.289-3.509-64.102-24.258-19.767-5.086-37.719-26.102-55.826-18.736-8.69-3.362-26.739-.577-36.847-12.912-9.177 16.49-30.521-8.244-44.37.4-15.22-15.376-37.926 4.25-42.969-23.507-18.49 3.77-27.532-16.766-39.758-13.205-19.266-4.989-46.513-5.968-45.143-32.794-19.442-.734-29.145-21.162-46.753-10.75 5.791-20.78 35.878-29.444 49.957-6.193 24.39-.079 45.575 19.213 69.64 23.731-2.366 25.484 44.546 15.143 59.205 31.434-22.2 4.316 10.965 21.335 9.332 1.688 15.931 2.829-18.313 24.841 10.014 20.021 23.578 8.047 49.832-1.094 74.278 2.346 16.815 12.328 43.396 10.03 54.143 2.73 8.058 8.897-1.98 20.071 16.93 11.771 17.076 9.907 21.164 25.928 45.799 23.688 19.77-5.95 46.44 26.048 52.76 20.502 8.49-13.694 24.23 18.669 25.678-4.322-19.39-13.078-32.595-33.853-56.188-35.594-18.701-5.03-30.19-17.62-24.06-34.44-14.146 7.885-24.586-5.75-9.348-15.783 32.35-6.036 36.22 38.07 65.608 37.513 4.604 5.568 18.025-2.624 21.406 12.083 7.236 15.009 28.138 17.048 35.324 8.316-5.225-29.636-39.036-29.542-48.37-57.473 10.398 6.463 25.24 5.965 25.375-6.486-25.036 6.332.748-20 7.277 1.277-.03 14.627 22.139 40.318 19.453 12.242-7.096-24.177-13.173-46.304-19.786-69.702 13.567 24.186 40.339 42.742 34.834 73.67 12.093 9.826-.821 36.163 7.259 41.862 1.937-17.442 14.713-34.639 14.673-45.569-18.62 5.145-15.602-37.404-14.869-49.638 3.736 11.468 2.313 52.375 17.085 41.361-3.713-15.83 12.201-28.585 5.6-5.689 11.389 22.184-15.812 46.67-6.662 64.35 26.414-1.528-2.436 34.544 1.49 48.044-9.57 17.027-17.844 34.626-23.493 45.953-9.103 26.08-25.52 49.436-47.37 66.665-20.066 18.487-44.396 33.516-71.235 39.249-20.893 14.211-49.826 11.027-74.49 14.709l-4.808.14-2.063-.223zm-44.101-67.427c-15.419.146-18.57-37.01-17.894-8.099 1.795 3.948 16.24 12.465 17.894 8.1zm6.57-19.472c-7.198-7.867-7.198 7.867 0 0zm172.926-8.694c3.74-9.422-10.243 9.371 0 0zm-56.226-9.729c-9.582-2.402-.736 11.315 0 0zm94.61-6.55c13.823-15.266 5.163-51.52-2.871-21.88 7.322 4.035-11.012 47.415 2.87 21.88zm-208.429 5.75c-5.893-6.18-.602 6.615 0 0zm175.011-3.325c-3.813 3.537 2.594 7.336 0 0zm-63.09-3.337c2.951-23.13-7.967 13.392 0 0zm-21.962 1.017c32.12-13.401-64.822-16.619-22.018.1 7.124 2.343 14.844 1.57 22.018-.1zm106.157-5.395c-7.904-1.408-4.82 11.695 0 0zm-183.185.57c29.71-5.425-22.102-17.726-20.138-.395 6.676 4.011 13.057-1.322 20.138.395zm34.134.858c-4.778-7.463-4.778 7.462 0 0zm75.865-23.047c-2.065-4.09-8.085 6.396 0 0zm86.459-14.981c6.185-12.903 27.32 13.094 23.746-12.585 12.668-19.277-6.414-37.093-21.966-20.204-11.095-12.721 10.748 21.115-5.546 25.568-5.645 7.988-6.773 21.687 3.766 7.22zm-79.361-3.655c-11.681-1.91 3.507 3.73 0 0zm13.087-9.054c-7.502-13.159-20.61 10.774-.42 1.167l.42-1.167zm-22.17-9.731c-27.917-11.435 3.581 27.489 0 0zm51.345 3.406c-11.682-1.91 3.507 3.73 0 0zm-62.793-14.066c-10.034-7.413-2.135 7.96 0 0zm-310.24-8.81c-5.394-8.033-6.055 10.012 0 0zm311.68-3.997c-13.639-2.17 1.335 3.407 0 0zm108.057-42.942c-5.4-11.053-5.4 11.053 0 0zm-340.098-15.246c-3.037-11.98-11.285 6.859 0 0zm-10.963-4.458c-9.963-11.527-8.114 10.441 0 0zm-22.573-9.245c-9.619-7.988-4.58 10.635 0 0zm-56.765-7.36c-18.6-9.815.653 4.983 0 0zm21.826-4.563c-8.445-11.501-25.528-1.976-3.877 3.67l2.528-.957 1.35-2.713zm-27.725-18.267c-18.81-14.039-2.496 29.257 0 0zm63.529 176.476c-14.45-2.299-20.236-16.074-1.62-5.975 9.884 8.49 23.837-18.336 22.775 6.087-6.768 1.795-14.266.573-21.155-.112zm-23.917-15.451c2.868-6.07 4.322 6.59 0 0zm-69.155-99.963c4.778-7.463 4.778 7.462 0 0zm166.3-9.394c4.628-15.073 10.718 7.125 0 0zm234.867-32.334c-11.129-11.495 11.402-13.923 13.028 1.659-3.961 2.288-9.52.893-13.028-1.659zM22.295 198.708c7.285-15.913-.584 11.164 0 0z" fill="#324e15"/><path d="M342.762 527.853c-24.635-3.745-54.297 6.136-75.165-10.746-.785-13.122 29.23 3.483 12.644-11.387-14.213-6.9 23.464-9.544-2.77-17.425 1.208-7.472 43.405-14.674 11.559-18.505-22.856 7.766-24.027-40.212-12.775-36.293 10.048 4.8-2.546 30.845 21.661 26.637 33.217 6.108 12.739-26.026-7.045-23.868 12.074-31.775 46.611 10.3 70.479 1.189 28.58 4.666 49.445-15.026 76.663-16.278 11.186.312 30.508-8.222 24.623 9.987 20.556 17.633 28.782-39.562 37.062-20.97-1.68 12.835 20.363-16.011 12.09 5.405-.789 22.025 14.967-22.069 17.636-21.059-5.754-13.816-12.661-31.167 8.433-19.939 28.011-2.262 10.55 23.639 3.149 34.274-7.797 25.947-24.303 48.378-45.648 65.103-20.066 18.487-44.396 33.516-71.235 39.249-20.893 14.211-49.826 11.027-74.49 14.709l-4.808.14-2.063-.223zm80.29-89.923c-9.226-9.887-4.378 17.969 0 0zm53.147-21.539c6.575-18.78 11.834 1.307 0 0zM154.337 402.58c-14.45-2.299-20.236-16.074-1.62-5.975 9.884 8.49 23.837-18.336 22.775 6.087-6.768 1.795-14.266.573-21.155-.112zm300.731-.482c-22.378 2.97 5.613-18.821-17.966-14.228-15.026 5.379-25.632 20.847-46.858 13.38-28.774-6.897-55.687.603-82.586-12.297-29.636-8.023-62.578-2.086-89.658-18.298-23.74-16.056-50.107-5.575-73.802-15.953-23.512-15.445-53.813-18.677-81.45-23.516-13.387-19.886-47.506-34.161-45.69-58.98 7.152 17.358 44.67 5.581 38.02 23.501-11.074 9.868 16.483-5.126 20.057 7.393 24.116 8.142 44.45 1.544 61.595 22.991 27.37 9.936 53.335 21.1 81.528 9.747 27.618 3.133 59.145-3.22 74.525 22.25 24.69 10.777 50.039-5.368 75.826-.756 10.34 1.906 24.52-4.575 30.717 6.381 19.021 10.734 49.133 10.088 69.188 2.443-21.042-14.8-47.75-20.806-69.951-32.685-26.536-2.32-54.828-.448-76.91-18.233-23.713-13.843-53.674-7.243-76.59-21.531-23.464 7.976-47.814-10.16-72.718-7.263-16.014-11.42-34.25-28.041-57.007-30.792-17.708-6.59-41.717-8.007-43.262-30.628-15.578-11.518-65.096-12.735-28.466-33.188 17.91.68 27.443 20.421 46.335 17.12 14.1 16.79 54.488 10.454 53.141 33.63 17.974 8.439 43.811 8.287 57.599 20.794-22.783.927 12.975 23.415 7.83 1.204 20.841-.446-17.469 25.09 12.017 19.718 23.578 8.047 49.832-1.094 74.278 2.346 16.815 12.328 43.396 10.03 54.143 2.73 8.057 8.899-1.978 20.07 16.932 11.771 17.482 22.549 47.33 26.785 73.7 35.526 20.406 9.99 42.614 23.096 62.951 25.74 3.105-22.39 18.886 24.954-6.227 22.238-22.23-4.67-20.74 25.107-41.24 17.445zm-347.7-69.917c-5.393-8.032-6.054 10.013 0 0zm79.64-62.184c-3.037-11.98-11.285 6.859 0 0zm-10.963-4.458c-9.963-11.527-8.114 10.441 0 0zm-22.573-9.245c-9.619-7.988-4.58 10.635 0 0zm-34.939-11.923c-8.445-11.501-25.528-1.976-3.877 3.67l2.528-.957 1.35-2.713zm-27.725-18.267c-18.81-14.039-2.496 29.257 0 0zm39.612 161.025c2.868-6.07 4.322 6.59 0 0zm376.013-40.521c-26.524-12.084-42.26-40.396-71.64-44.544-20.046-2.847-20.91-18.734-26.675-31.99-28.618 4.739-5.518-29.175 11.13-11.655 20.812 15.494 33.51 39.585 62.875 42.766 9.105 15.448 32.04 23.642 41.23 33.053-10.542-.276-7.347 15.829-16.92 12.37zm43.151-2.279c-12.12-14.08 37.289-35.632 23.628-7.849.637 10.106-18.733 15.973-23.628 7.85zm-13.259-15.075c-14.793-16.158 3.567-50.617-8.1-73.595-1.016-16.822-25.032-56.843-18.093-58.914 6.16 16.086 22.471 27.332 29.606 41.398.31 24.25 4.253 48.275 7.233 72.091 12.182-18.667 27.204-44.014 6.205-57.808 9.622 19.796 19.839-17.595 20.508 9.62-4.017 24.223-14.04 50.107-28.686 69.059l-3.365-.463-5.308-1.388zm-22.62-39.368c-11.91-11.039-32.475-16.121-36.607-34.882 10.79 18.562 37.955-12.357 11.1-5.534 15.71-22.548 30.243 25.856 33.225 38.903.641 7.372-5.837 9.243-7.718 1.513zm-286.14-12.114c4.628-15.073 10.718 7.125 0 0zM465.547 244c-15.661-25.924 28.485 14.984 0 0zm80.781-22.156c1.32-24.862 5.635 14.093 0 0z" fill="#283526"/><path d="M336.34 521.744c-12.909-10.824 1.801 9.24-16.702 3.483-24.206 7.826 7.842-24.021-15.16-21.986-1.782 8.033-6.554 22.038-18.356 17.964 16.61-15.215-4.164-39.355 18.74-46.268-5.678-8.013-39.019-12.675-10.224-12.627 25 8.373 29.695-19.17 7.257-26.038-21.66 11.376-3.247-27.706 9.542-9.63 25.734 11.369 52.536 14.218 80.35 8.86 12.309-10.155 23.057-11.833 30.13-6.99 8.41-10.697 31.293-9.281 41.004-7.696-5.335 12.916 11.287 10.956 12.626 18.213 3.478-7.706 28.642-51.556 21.876-24.206-13.267 31.472 17.024-19.465 14.692-4.71-7.333 14.459 1.357 24.247 6.346 4.773 2.518-17.88 23.883-7.377 11.526-21.99-3.615-2.811-14.275-35.87 4.153-15.151 17.992-17.14 23.814 24.959 11.147 17.553-8.611-24.568-2.584 37.412-20.88 45.002-16.721 23.951-40.46 43.234-65.735 58.147-29.438 9.525-52.017 25.277-84.87 25.576-12.473-.807-27.085 7.172-37.461-2.28zm84.15-53.641c-10.94-19.114-3.893 8.119 0 0zm2.562-30.173c-9.226-9.887-4.378 17.969 0 0zm-150.478 1.102c11.086-15.462 4.929 14.06 0 0zm203.625-22.64c6.575-18.782 11.834 1.306 0 0zm-21.13-14.295c-21.89 2.518 5.524-19.873-19.698-14.123-14.064.738-16.486 22.577-37.318 13.86-27.645-7.44-55.915 1.437-81.06-10.791-29.295-9.588-62.292-3.675-90.189-16.712-15.824-10.732-50.435-13.613-52.73-31.058 25.283 1.933 47.6-12.87 74.584-5.82 16.442 1.951 33.697 2.002 39.249 19.707 28.16 10.792 57.115-1.88 86.264-.003 25.002 4.022 42.91 21.185 72.929 14.637 19.279 1.71 26.685-10.277 4.816-15.42-27.49-8.488-51.097-29.778-80.312-23.981-25.315-.763-55.269-17.758-70.97-28.73 12.075-6.792 22.293 9.955 34.88-3.66 14.492 3.423.05 33.793 24.18 15.596 13.31-16.498 31.86 17.254 52.611 14.335 29.413 1.468 52.76 24.686 80.195 31.351 13.503 15.518 8.938-22.447 18.152 3.718 2.123 14.6-9.04 17.206-14.687 12.186 2.5 16.716-31.41 3.506-27 26.12-4.695.89-9.305-.577-13.897-1.212zM249.521 365.89c-8.356-12.23-10.017 11.897 0 0zm-41.301-11.469c-15.73-12.553-6.215 13.913 0 0zm-43.223 5.794c4.779-7.462 4.778 7.462 0 0zm-18.73-3.196c-7.067-10.405 33.09-25.87 19.69-6.766-6.626 2.5-11.336 10.42-19.69 6.766zm360.165-10.425c-26.533-12.063-42.259-40.388-71.64-44.53-21.352-1.914-33.275-30.932-4.4-30.587 11.24 12.572 31.166 27.338 51.177 28.712 4.097 11.858 51.924 36.632 24.863 46.405zm46.606.135c-15.48-11.282 9.348-19.471 20.604-25.704 3.153 12.969-12.909 33.35-20.604 25.704zm-441.828-5.738c2.867-6.07 4.321 6.59 0 0zm406.556-8.65c4.79-10.286 9.009 9.743 0 0zm17.983-3.507c-11.314-20.692 2.283-55.443-8.458-81.373.9-13.6 11.247 7.304 10.063 10.094 8.761 17.7 5.493 48.276 7.365 62.857 7.835-7.97 14.582-50.623 23.551-39.576-6.391 14.331-11.136 54.02-32.52 47.998zM54.861 324.33c3.004-7.083.846-25.618 15.905-19.27 9.923-.926 23.554 3.398 16.681 11.908 10.74-19.734 33.622 10.781 8.365 5.744-10.326.195-22.42 2.083-20.599-10.457-9.07-2.246-13.312 15.4-20.352 12.075zm56.673-13.396c6.029-10.107 3.216 9.69 0 0zm-68.744-1.25c-18.487-7.11-30.955-37.49-4.016-20.75 2.308-.566 11.626 31.574 4.016 20.75zm218.258-8.15c8.116-5.884 27.095-9.886 9.528-.686-2.585.242-7.185 3.806-9.528.686zm-33.617-4.758c1.207-6.352 7.257 6.577 0 0zm22.091 1.074c3.077-6.288 8.102 4.142 0 0zm264.183-7.966c-10.282-8.23-33.486-20.969-34.69-31.407 13.825 15.101 23.489-13.864 32.86 6.982 4.489 3.313 15.748 43.586 1.83 24.425zm-322.773-1.991c-8.196-4.658-35.042.342-27.766-14.186 6.238 11.55 52.797 1.629 33.37 17.469l-5.604-3.283zm26.976 3.248c.775-8.825 10.804 7.333 0 0zM51.66 289.087c2.867-6.07 4.321 6.59 0 0zm78.991-30.664c-17.089 4.8-19.08-15.887-3.867-13.705 2.322 5.274 30.916 22.535 3.867 13.705zm-30.966-7.67c5.859-9.692 13.133 8.605 0 0zm-21.772-7.162c-2.788-10.04-16.107-49.086-.278-23.71.226 4.69 8.818 26.772.278 23.71zm14.088-4.599c4.322-11.273 2.145 13.036 0 0zm14.396-3.743c-5.822-18.218 21.031 12.368 0 0zm425.855-.152c-1.825-12.548 11.22 12.284 0 0zM89.376 222.088c-8.676-18.027 18.43 6.84 0 0zm-33.688-4.865c1.812-14.52 13.513 8.882 0 0zm2.385-13.797c-1.173-11.046 12.126 7.8 0 0z" fill="#253219"/><path d="M340.552 523.787c-12.477-4.784-15.854-20.056-13.853-24.984-18.391-4.034-29.145 8.584-29.77 18.109-20.78 12.647 8.641-20.338-5.695-31.512 23.8-2.03 15.29-22.392-4.577-18.714-13.878-12.102 52.08 13.346 39.467-18.938-2.09-12.713-45.462-10.935-22.002-20.755 25.202 6.785 47.825 20.424 74.577 22.36 10.79 21.58-1.828-7.68 17.757-7.841 10.847-6.9 25.205-21.103 15.63 1.307-4.63 26.892 29.884.247 12.22-13.584 9.122-3.676 32.565-11.934 33.991-.743-2.845 13.262 22.833 2.84 9.772 20.472.3 13.87 14.045-30.961 28.462-18.44 15.27-28.709-1.63 24.087 17.283 8.637 17.154 32.98-52.932 8.059-29.72 37.294-10.155 18.265-37.642 29.472-57.15 31.637-14.059 11.759-43.406 15.343-67.385 16.405-6.426-.247-13.31 4.35-19.007-.71zm105.872-52.459c-6.074 3.053-20.055-18.13-13.93 1.826 4.198 3.46 10.186.988 13.93-1.826zm-24.012-1.606c-5.109-21.278-16.716-3.092-.954 1.926l.954-1.926zM314.836 523.04c6.042-19.284 26.684 10.612 1.958 1.863l-1.464-.783-.494-1.08zm171.12-55.973c1.524-9.83 1.84 7.85 0 0zm-96.04-68.035c-24.78-12.373-51.77 1.129-76.308-12.214-16.936-4.3-38.715-4.959-48.85-15.016-10.86 23.308-58.057-5.079-35.902-28.518 8.61-9.03 33.422-.012 46.647 2.474 4.038 20.036 31.122 11.258 30.438 32.358 20.01-17.775 48.675-21.817 76.66-17.983 19.75 16.449 46.813 12.64 71.52 14.595 23.17.712 22.462-15.241 1.403-19.81-15.502-6.79-42.67-15.074-50.212-23.183 28.315-.151 51.468 18.51 75.333 28.48 11.51 6.321 40.062 10.64 12.87 16.31-17.224 3.494-22.363 27.08-37.344 18.769 7.178-21.778-37.931-7.985-45.568 3.153-6.796 1.42-13.806.9-20.687.585zm-53.95-25.885c30.736-13.27-24.77-4.908-3.673 1.212l3.674-1.212zm-86.323-3.861c18.03-17.4-27.2-32.776-6.983-14.216 6.197 2.013-8.24 23.094 6.983 14.216zm295.89 18.176c-6.887-21.138 13.857 7.78 0 0zm-332.31-22.2c-8.373-3.325-50.345-18.401-32.97-19.225 7.891 4.92 49.327-17.235 32.013 3.643-17.776-1.077-10.652 15.236 2.446 7.53.02 4.012 14.513 16.282-1.49 8.052zm280.265-29.775c-21.888-18.852-42.278-32.19-68.823-41.584-26.177-7.71 10.55-33.916 16.945-8.603 22.714 17.046 61.249 23.245 69.27 53.652-4.154 9.102-12.792-.262-17.392-3.465zm-57.63-49.282c-6.16-10.215-5.25 9.985 0 0zm118.622 55.384c-10.562-15.271 34.204-9.501 6.82.805l-3.246-.125-3.574-.68zm-206.059-15.483c-9.258-.896-35.498-24.106-13.535-20.326 4.865 35.259 35.026-7.446 48.874 14.985 21.451 13.176-21.83 8.002-35.339 5.34zm-250.177-5.719c-9.817-16.04 22.793-.978 0 0zm-19.623-6.182c-2.049-19.112 15.58 10 0 0zm457.13-15.231c-3.836-17.976 9.343-20.381 7.069-1.86-.053 11.907-7.881 29.457-7.07 1.86zm17.356 11.147c4.277-16.335 7.682-2.032 0 0zm-248.464-4.96c-1.69-9.933 10.191 4.547 0 0zm-109.87-19.918c4.586-11.858 11.933 7.863 0 0zm316.965-1.922c-13.505-.177-35.6-23.862-10.225-15.39 8.13-11.45 25.827 31.254 10.225 15.39zm22.091-20.298c4.28-12.457 3.728 15.036 0 0z" fill="#1c2617"/><path d="M341.196 519.75c-6.534-18.855 23.19 12.651 0 0zm21.665-.53c7.66-7.695 26.14-27.73 2.676-16.98-17.752-20.991-58.18 7.55-67.605-12.777 10.97-15.891 43.072-28.192 30.54-52.34 19.355 11.353 45.009 11.764 60.92 24.28-7.513-15.566 26.284-30.737 17.162-5.848 3.36 17.469 25.99 21.326 10.396 38.458-1.397 20.116-25.748 12.77-34.099 5.718-2.292 8.277-8.819 23.345-19.99 19.489zm27.754-29.793c2.44-15.884 25.004 9.285 11.217-11.794 5.49-16.449-24.795-11.06-8.39-.084-9.368 2.308-14.92 32.293-2.827 11.878zm-38.32-6.154c-8.81-13.602-21.595 14.707 0 0zm14.888-15.124c12.215-18.22-24.039-7.084-7.2 3.554-2.65 9.818 7.503-1.265 7.2-3.554zm42.142 45.735c6.926-10.209 4.181 6.18 0 0zm15.409-9.95c-12.534-16.013 28.001-29.854 32.602-28.047 5.505 12.247 18.86-16.443 21.87 6.645-14.486 9.699-37.239 24.248-54.472 21.401zm14.393-39.204c-7.987-18.109-14.049-44.878 14.73-38.191-7.933 18.203 28.62 8.147 7.374 27.756-6.791 10.2-23.76-14.286-14.851 6.006 2.568 4.165-4.603 6.855-7.253 4.429zm-17.767-2.777c10.745-23.13 19.04 3.317 0 0zm52.918-8.283c4.092-25.716 18.933 3.831 0 0zm25.934-1.181c-32.123-6.584 16.454-15.847 4.838 1.88l-2.907-.564-1.931-1.316zM303.83 432.103c6.279-2.119 5.134 3.57 0 0zm71.702-40.354c-10.693-10.722-63.421 4.286-30.1-14.067 2.809-6.26 3.78 14.686 14.228 1.406 16.611-.904 32.88 1.298 48.143-4.467 21.969-.747 59.868 11.43 71.28-11.284 31.355 3.062-8.06 33.094-23.374 18.401-29.629-5.67-51.348 27.682-80.177 10.01zm2.726-19.56c-3.222-13.341-28.866-1.24-7.755-9.897 15.58-3.128 32.892 17.624 7.755 9.896zm115.81-39.42c-19.141-9.667-.181-22.393 6.17-4.564 16.954 4.021 5.28 20.067-6.17 4.565zm-18.954-15.44c2.098-25.426 14.066 4.721 0 0zm-33.877-19.015c12.04-4.585-.253 8.673 0 0zm96.434-4.421c2.204-20.743 5.033 20.58 0 0z" fill="#171b13"/></svg>